<svg width="93" height="73" viewBox="0 0 93 73" fill="none" xmlns="http://www.w3.org/2000/svg">
<path d="M-42.6925 146.515C-58.7629 133.086 -69.125 114.049 -71.6774 93.2626C-74.2299 72.4763 -68.7817 51.4973 -56.4377 34.5796C-44.0937 17.6619 -25.7778 6.07191 -5.20404 2.15973C15.3697 -1.75245 36.6612 2.30607 54.3531 13.5123C72.045 24.7185 84.813 42.2337 90.068 62.506C95.323 82.7783 92.6717 104.29 82.6517 122.68C72.6316 141.07 55.9929 154.961 36.1095 161.536C16.2261 168.111 -5.41376 166.878 -24.4219 158.088L-14.4606 136.548C-0.920223 142.81 14.4948 143.688 28.6587 139.004C42.8225 134.321 54.6751 124.426 61.8128 111.326C68.9505 98.2258 70.8392 82.9018 67.0958 68.4609C63.3524 54.02 54.2572 41.5431 41.6544 33.5604C29.0517 25.5777 13.8848 22.6867 -0.770829 25.4735C-15.4264 28.2603 -28.4737 36.5164 -37.2669 48.5676C-46.0601 60.6189 -49.9411 75.5632 -48.1228 90.3702C-46.3046 105.177 -38.9233 118.738 -27.4756 128.304L-42.6925 146.515Z" fill="white"/>
</svg>
