<svg width="72" height="67" viewBox="0 0 72 67" fill="none" xmlns="http://www.w3.org/2000/svg">
<g filter="url(#filter0_d_300_7465)">
<rect x="4" y="0.5" width="64" height="58" rx="16" fill="#EA868F" shape-rendering="crispEdges"/>
<path d="M51.4511 26.061C50.0925 25.8137 48.7141 25.6929 47.3334 25.7C46.54 25.7 45.7656 25.7 44.9912 25.852C44.027 24.5579 42.7964 23.4885 41.3834 22.717C42.5971 21.3837 43.2709 19.6418 43.2723 17.834C43.2723 15.8889 42.5041 14.0235 41.1368 12.6481C39.7695 11.2727 37.9149 10.5 35.9812 10.5C34.0475 10.5 32.193 11.2727 30.8257 12.6481C29.4583 14.0235 28.6902 15.8889 28.6902 17.834C28.6916 19.6418 29.3654 21.3837 30.5791 22.717C29.1745 23.4925 27.9458 24.5537 26.9713 25.833C26.2346 25.7 25.4602 25.7 24.6669 25.7C23.285 25.7054 21.9066 25.839 20.5491 26.099C20.1091 26.1799 19.7119 26.4153 19.4283 26.7633C19.1446 27.1112 18.993 27.5491 19.0003 27.999V43.674C18.9998 43.9531 19.0605 44.2289 19.178 44.4818C19.2956 44.7346 19.467 44.9584 19.6802 45.137C19.8921 45.3167 20.1407 45.4473 20.4084 45.5195C20.6761 45.5918 20.9563 45.6039 21.2291 45.555C22.3594 45.3074 23.5105 45.1674 24.6669 45.137C28.3258 45.133 31.9054 46.2099 34.9612 48.234L35.2068 48.329C35.4573 48.4384 35.727 48.4965 36.0001 48.5C36.1804 48.4977 36.3591 48.4656 36.529 48.405H36.6612L36.9068 48.31C39.9918 46.2339 43.6216 45.1292 47.3334 45.137C48.4874 45.1424 49.6384 45.2569 50.7711 45.479C51.044 45.5279 51.3242 45.5158 51.5919 45.4436C51.8595 45.3713 52.1081 45.2407 52.32 45.061C52.5332 44.8824 52.7047 44.6586 52.8222 44.4058C52.9398 44.1529 53.0005 43.8771 53 43.598V27.923C52.9984 27.4796 52.8427 27.0508 52.5598 26.7107C52.2769 26.3706 51.8847 26.1408 51.4511 26.061ZM36.0001 14.3C36.885 14.3654 37.7124 14.7651 38.3164 15.4189C38.9203 16.0726 39.256 16.9321 39.256 17.8245C39.256 18.7169 38.9203 19.5764 38.3164 20.2301C37.7124 20.8839 36.885 21.2836 36.0001 21.349C35.1153 21.2836 34.2878 20.8839 33.6839 20.2301C33.0799 19.5764 32.7443 18.7169 32.7443 17.8245C32.7443 16.9321 33.0799 16.0726 33.6839 15.4189C34.2878 14.7651 35.1153 14.3654 36.0001 14.3ZM34.1113 43.427C31.1508 42.0505 27.9283 41.3374 24.6669 41.337C24.0435 41.337 23.4202 41.337 22.778 41.432V29.5C24.3619 29.3218 25.9623 29.3537 27.538 29.595H27.7457C29.9965 30.0111 32.1534 30.8351 34.1113 32.027V43.427ZM36.0001 28.74C35.1602 28.2526 34.2894 27.821 33.3935 27.448H33.2801C32.6568 27.201 32.0335 26.954 31.3913 26.764C32.7027 25.714 34.3241 25.1325 36.0001 25.111C37.6717 25.1217 39.2926 25.6896 40.609 26.726C39.0055 27.2296 37.4604 27.9048 36.0001 28.74ZM49.2222 41.432C45.3437 41.04 41.4315 41.6959 37.889 43.332V31.932C39.8504 30.7707 42.0086 29.9848 44.2545 29.614H44.6323C46.1509 29.3761 47.6938 29.3378 49.2222 29.5V41.432Z" fill="#262626"/>
</g>
<defs>
<filter id="filter0_d_300_7465" x="0" y="0.5" width="72" height="66" filterUnits="userSpaceOnUse" color-interpolation-filters="sRGB">
<feFlood flood-opacity="0" result="BackgroundImageFix"/>
<feColorMatrix in="SourceAlpha" type="matrix" values="0 0 0 0 0 0 0 0 0 0 0 0 0 0 0 0 0 0 127 0" result="hardAlpha"/>
<feOffset dy="4"/>
<feGaussianBlur stdDeviation="2"/>
<feComposite in2="hardAlpha" operator="out"/>
<feColorMatrix type="matrix" values="0 0 0 0 0 0 0 0 0 0 0 0 0 0 0 0 0 0 0.25 0"/>
<feBlend mode="normal" in2="BackgroundImageFix" result="effect1_dropShadow_300_7465"/>
<feBlend mode="normal" in="SourceGraphic" in2="effect1_dropShadow_300_7465" result="shape"/>
</filter>
</defs>
</svg>
