<svg width="74" height="74" viewBox="0 0 74 74" fill="none" xmlns="http://www.w3.org/2000/svg">
<g filter="url(#filter0_d_300_7449)">
<rect x="4" y="7.5" width="64" height="58" rx="16" fill="#6EA8FE" shape-rendering="crispEdges"/>
<path d="M48.75 35.4444V25.9444L44.2663 28.1822C44.569 29.4246 44.5839 30.719 44.3097 31.9679C44.0355 33.2168 43.4794 34.3875 42.6834 35.3917C41.8874 36.396 40.8722 37.2076 39.7145 37.7653C38.5567 38.3229 37.2867 38.6122 36 38.6111C34.7133 38.6122 33.4433 38.3229 32.2855 37.7653C31.1278 37.2076 30.1126 36.396 29.3166 35.3917C28.5206 34.3875 27.9645 33.2168 27.6903 31.9679C27.4161 30.719 27.431 29.4246 27.7337 28.1822L21.125 24.8889L36 17.5L50.875 24.8889V35.4444H48.75ZM36 32.2778L31.75 30.1667C31.75 32.4889 33.6625 34.3889 36 34.3889C38.3375 34.3889 40.25 32.4889 40.25 30.1667L36 32.2778ZM41.8438 24.72L36.34 21.9333L30.6238 24.8256L36.1487 27.6122L41.8438 24.72ZM36 40.7222C41.6738 40.7222 53 43.53 53 49.1667V55.5H19V49.1667C19 43.53 30.3262 40.7222 36 40.7222ZM36 44.7333C29.625 44.7333 23.0375 47.8156 23.0375 49.1667V51.4889H48.9625V49.1667C48.9625 47.8156 42.3113 44.7333 36 44.7333Z" fill="#262626"/>
<path d="M60.4286 20.5714V14.4286H66.5714C67.2155 14.4286 67.8332 14.1727 68.2887 13.7173C68.7441 13.2618 69 12.6441 69 12C69 11.3559 68.7441 10.7382 68.2887 10.2827C67.8332 9.8273 67.2155 9.57143 66.5714 9.57143H60.4286V3.42857C60.4286 2.78447 60.1727 2.16676 59.7173 1.71131C59.2618 1.25587 58.6441 1 58 1C57.3559 1 56.7382 1.25587 56.2827 1.71131C55.8273 2.16676 55.5714 2.78447 55.5714 3.42857V9.57143H49.4286C48.7845 9.57143 48.1668 9.8273 47.7113 10.2827C47.2559 10.7382 47 11.3559 47 12C47 12.6441 47.2559 13.2618 47.7113 13.7173C48.1668 14.1727 48.7845 14.4286 49.4286 14.4286H55.5714V20.5714C55.5714 21.2155 55.8273 21.8332 56.2827 22.2887C56.7382 22.7441 57.3559 23 58 23C58.6441 23 59.2618 22.7441 59.7173 22.2887C60.1727 21.8332 60.4286 21.2155 60.4286 20.5714Z" fill="#198754" stroke="#198754" stroke-width="2"/>
</g>
<defs>
<filter id="filter0_d_300_7449" x="0" y="0" width="74" height="73.5" filterUnits="userSpaceOnUse" color-interpolation-filters="sRGB">
<feFlood flood-opacity="0" result="BackgroundImageFix"/>
<feColorMatrix in="SourceAlpha" type="matrix" values="0 0 0 0 0 0 0 0 0 0 0 0 0 0 0 0 0 0 127 0" result="hardAlpha"/>
<feOffset dy="4"/>
<feGaussianBlur stdDeviation="2"/>
<feComposite in2="hardAlpha" operator="out"/>
<feColorMatrix type="matrix" values="0 0 0 0 0 0 0 0 0 0 0 0 0 0 0 0 0 0 0.25 0"/>
<feBlend mode="normal" in2="BackgroundImageFix" result="effect1_dropShadow_300_7449"/>
<feBlend mode="normal" in="SourceGraphic" in2="effect1_dropShadow_300_7449" result="shape"/>
</filter>
</defs>
</svg>
