<svg width="72" height="67" viewBox="0 0 72 67" fill="none" xmlns="http://www.w3.org/2000/svg">
<g filter="url(#filter0_d_300_7455)">
<rect x="4" y="0.5" width="64" height="58" rx="16" fill="#75B798" shape-rendering="crispEdges"/>
<path d="M48.75 28.4444V18.9444L44.2663 21.1822C44.569 22.4246 44.5839 23.719 44.3097 24.9679C44.0355 26.2168 43.4794 27.3875 42.6834 28.3917C41.8874 29.396 40.8722 30.2076 39.7145 30.7653C38.5567 31.3229 37.2867 31.6122 36 31.6111C34.7133 31.6122 33.4433 31.3229 32.2855 30.7653C31.1278 30.2076 30.1126 29.396 29.3166 28.3917C28.5206 27.3875 27.9645 26.2168 27.6903 24.9679C27.4161 23.719 27.431 22.4246 27.7337 21.1822L21.125 17.8889L36 10.5L50.875 17.8889V28.4444H48.75ZM36 25.2778L31.75 23.1667C31.75 25.4889 33.6625 27.3889 36 27.3889C38.3375 27.3889 40.25 25.4889 40.25 23.1667L36 25.2778ZM41.8438 17.72L36.34 14.9333L30.6238 17.8256L36.1488 20.6122L41.8438 17.72ZM36 33.7222C41.6737 33.7222 53 36.53 53 42.1667V48.5H19V42.1667C19 36.53 30.3263 33.7222 36 33.7222ZM36 37.7333C29.625 37.7333 23.0375 40.8156 23.0375 42.1667V44.4889H48.9625V42.1667C48.9625 40.8156 42.3113 37.7333 36 37.7333Z" fill="#262626"/>
</g>
<defs>
<filter id="filter0_d_300_7455" x="0" y="0.5" width="72" height="66" filterUnits="userSpaceOnUse" color-interpolation-filters="sRGB">
<feFlood flood-opacity="0" result="BackgroundImageFix"/>
<feColorMatrix in="SourceAlpha" type="matrix" values="0 0 0 0 0 0 0 0 0 0 0 0 0 0 0 0 0 0 127 0" result="hardAlpha"/>
<feOffset dy="4"/>
<feGaussianBlur stdDeviation="2"/>
<feComposite in2="hardAlpha" operator="out"/>
<feColorMatrix type="matrix" values="0 0 0 0 0 0 0 0 0 0 0 0 0 0 0 0 0 0 0.25 0"/>
<feBlend mode="normal" in2="BackgroundImageFix" result="effect1_dropShadow_300_7455"/>
<feBlend mode="normal" in="SourceGraphic" in2="effect1_dropShadow_300_7455" result="shape"/>
</filter>
</defs>
</svg>
